<svg width="75" height="66" viewBox="0 0 75 66" fill="none" xmlns="http://www.w3.org/2000/svg">
<path d="M69.2307 0H5.76927C4.23918 0 2.77176 0.604568 1.68982 1.68071C0.607878 2.75684 5.07207e-05 4.2164 5.07207e-05 5.73829V63.1212C-0.00288649 63.6108 0.121792 64.0928 0.361928 64.5202C0.602063 64.9476 0.949459 65.3058 1.37024 65.5599C1.78764 65.8209 2.26532 65.9711 2.75769 65.9962C3.25006 66.0213 3.74069 65.9205 4.18274 65.7034L14.4231 60.5748L24.6635 65.7034C25.0684 65.8973 25.5121 65.998 25.9616 65.998C26.411 65.998 26.8547 65.8973 27.2596 65.7034L37.5 60.5748L47.7404 65.7034C48.1467 65.8924 48.5899 65.9903 49.0384 65.9903C49.487 65.9903 49.9302 65.8924 50.3365 65.7034L60.5769 60.5748L70.8173 65.7034C71.2593 65.9205 71.7499 66.0213 72.2423 65.9962C72.7347 65.9711 73.2124 65.8209 73.6298 65.5599C74.0505 65.3058 74.3979 64.9476 74.6381 64.5202C74.8782 64.0928 75.0029 63.6108 75 63.1212V5.73829C75 4.2164 74.3921 2.75684 73.3102 1.68071C72.2282 0.604568 70.7608 0 69.2307 0ZM69.2307 58.4947L61.875 54.8006C61.47 54.6067 61.0263 54.5061 60.5769 54.5061C60.1275 54.5061 59.6838 54.6067 59.2788 54.8006L49.0384 59.9292L38.7981 54.8006C38.3917 54.6117 37.9486 54.5137 37.5 54.5137C37.0514 54.5137 36.6083 54.6117 36.2019 54.8006L25.9616 59.9292L15.7212 54.8006C15.3162 54.6067 14.8725 54.5061 14.4231 54.5061C13.9737 54.5061 13.53 54.6067 13.125 54.8006L5.76927 58.4947V5.73829H69.2307V58.4947ZM40.3846 25.8223C40.3846 25.0613 40.6885 24.3316 41.2295 23.7935C41.7705 23.2554 42.5042 22.9531 43.2692 22.9531H60.5769C61.3419 22.9531 62.0757 23.2554 62.6166 23.7935C63.1576 24.3316 63.4615 25.0613 63.4615 25.8223C63.4615 26.5832 63.1576 27.313 62.6166 27.8511C62.0757 28.3892 61.3419 28.6914 60.5769 28.6914H43.2692C42.5042 28.6914 41.7705 28.3892 41.2295 27.8511C40.6885 27.313 40.3846 26.5832 40.3846 25.8223ZM40.3846 37.2989C40.3846 36.5379 40.6885 35.8081 41.2295 35.2701C41.7705 34.732 42.5042 34.4297 43.2692 34.4297H60.5769C61.3419 34.4297 62.0757 34.732 62.6166 35.2701C63.1576 35.8081 63.4615 36.5379 63.4615 37.2989C63.4615 38.0598 63.1576 38.7896 62.6166 39.3277C62.0757 39.8657 61.3419 40.168 60.5769 40.168H43.2692C42.5042 40.168 41.7705 39.8657 41.2295 39.3277C40.6885 38.7896 40.3846 38.0598 40.3846 37.2989ZM14.4231 45.9063H31.7308C32.4958 45.9063 33.2295 45.604 33.7705 45.0659C34.3115 44.5279 34.6154 43.7981 34.6154 43.0372V20.084C34.6154 19.3231 34.3115 18.5933 33.7705 18.0552C33.2295 17.5171 32.4958 17.2149 31.7308 17.2149H14.4231C13.6581 17.2149 12.9244 17.5171 12.3834 18.0552C11.8424 18.5933 11.5385 19.3231 11.5385 20.084V43.0372C11.5385 43.7981 11.8424 44.5279 12.3834 45.0659C12.9244 45.604 13.6581 45.9063 14.4231 45.9063ZM17.3077 22.9531H28.8462V40.168H17.3077V22.9531Z" fill="#111111"/>
</svg>
