<svg width="71" height="74" viewBox="0 0 71 74" fill="none" xmlns="http://www.w3.org/2000/svg">
<path d="M53.4375 11.375L53.4375 17.0625L59.0625 17.0625C61.3456 17.0673 63.5733 17.7743 65.4495 19.0897C67.3258 20.4051 68.7618 22.2665 69.5668 24.4268C70.3718 26.587 70.5077 28.9438 69.9565 31.184C69.4052 33.4242 68.1928 35.4418 66.4805 36.9687C67.6853 38.0311 68.6508 39.3423 69.3119 40.814C69.9729 42.2857 70.3141 43.8836 70.3125 45.5C70.3051 48.2932 69.2846 50.9867 67.4445 53.0701C65.6043 55.1534 63.0723 56.482 60.3281 56.8039C61.3314 58.532 61.8654 60.4973 61.8761 62.5011C61.8868 64.5049 61.3738 66.476 60.389 68.2149C59.4042 69.9538 57.9826 71.3988 56.268 72.4037C54.5535 73.4086 52.6068 73.9377 50.625 73.9375L36.5625 73.9375C26.8655 73.9375 17.5657 70.0426 10.7089 63.1096C3.8521 56.1766 -7.30903e-06 46.7735 -7.19339e-06 36.9687C-7.07776e-06 27.164 3.8521 17.7609 10.7089 10.8279C17.5657 3.89491 26.8655 -5.23857e-07 36.5625 -4.06937e-07L42.1875 -3.39114e-07C45.1683 0.00937622 48.0244 1.21082 50.1322 3.34202C52.24 5.47321 53.4282 8.36105 53.4375 11.375ZM64.6875 28.4375C64.6875 26.9291 64.0949 25.4824 63.04 24.4158C61.9851 23.3492 60.5543 22.75 59.0625 22.75L53.4375 22.75L53.4375 34.125L59.0625 34.125C60.5543 34.125 61.9851 33.5258 63.04 32.4592C64.0949 31.3926 64.6875 29.9459 64.6875 28.4375ZM59.0625 51.1875C60.5543 51.1875 61.9851 50.5883 63.04 49.5217C64.0949 48.4551 64.6875 47.0084 64.6875 45.5C64.6875 43.9916 64.0949 42.5449 63.04 41.4783C61.9851 40.4117 60.5543 39.8125 59.0625 39.8125L45 39.8125C43.5082 39.8125 42.0774 40.4117 41.0225 41.4783C39.9676 42.5449 39.375 43.9916 39.375 45.5C39.375 47.0084 39.9676 48.4551 41.0225 49.5217C42.0774 50.5883 43.5082 51.1875 45 51.1875L59.0625 51.1875ZM50.625 68.25C52.1168 68.25 53.5476 67.6508 54.6025 66.5842C55.6574 65.5176 56.25 64.0709 56.25 62.5625C56.25 61.0541 55.6574 59.6074 54.6025 58.5408C53.5476 57.4742 52.1168 56.875 50.625 56.875L45 56.875C43.5082 56.875 42.0774 57.4742 41.0225 58.5408C39.9676 59.6074 39.375 61.0541 39.375 62.5625C39.375 64.0709 39.9676 65.5176 41.0225 66.5842C42.0774 67.6508 43.5082 68.25 45 68.25L50.625 68.25ZM36.5625 5.6875C28.4961 5.72245 20.7622 8.94153 15.0092 14.6586C9.25613 20.3757 5.939 28.1386 5.76478 36.2928C5.59055 44.447 8.57303 52.3476 14.0765 58.3106C19.58 64.2735 27.1692 67.8273 35.2266 68.2145C33.9434 65.9378 33.477 63.2829 33.9061 60.6987C34.3353 58.1145 35.6338 55.7593 37.582 54.0312C35.3664 52.0751 33.9994 49.3171 33.7759 46.3516C33.5523 43.3861 34.4899 40.4505 36.3867 38.1773C34.716 37.1513 33.3355 35.7065 32.3789 33.9828C30.8007 35.8179 28.8505 37.2883 26.6607 38.2942C24.4709 39.3001 22.0927 39.8179 19.6875 39.8125C18.9416 39.8125 18.2262 39.5129 17.6988 38.9796C17.1713 38.4463 16.875 37.723 16.875 36.9687C16.875 36.2145 17.1713 35.4912 17.6988 34.9579C18.2262 34.4246 18.9416 34.125 19.6875 34.125C22.6683 34.1156 25.5244 32.9142 27.6322 30.783C29.74 28.6518 30.9282 25.764 30.9375 22.75C30.9375 21.9958 31.2338 21.2725 31.7613 20.7392C32.2887 20.2059 33.0041 19.9062 33.75 19.9062C34.4959 19.9062 35.2113 20.2059 35.7387 20.7392C36.2662 21.2725 36.5625 21.9958 36.5625 22.75L36.5625 28.4375C36.5625 29.9459 37.1551 31.3926 38.21 32.4592C39.2649 33.5258 40.6957 34.125 42.1875 34.125L47.8125 34.125L47.8125 11.375C47.8125 9.86658 47.2199 8.41994 46.165 7.35333C45.1101 6.28672 43.6793 5.6875 42.1875 5.6875L36.5625 5.6875Z" fill="#111111"/>
</svg>
