<svg width="82" height="66" viewBox="0 0 82 66" fill="none" xmlns="http://www.w3.org/2000/svg">
<path fill-rule="evenodd" clip-rule="evenodd" d="M4.93504 14.8145C4.93504 17.3002 5.83076 19.6841 7.42516 21.4418C9.01957 23.1995 11.182 24.1869 13.4369 24.1869C15.6917 24.1869 17.8542 23.1995 19.4486 21.4418C21.043 19.6841 21.9387 17.3002 21.9387 14.8145C21.9387 12.3288 21.043 9.94485 19.4486 8.18718C17.8542 6.42951 15.6917 5.44206 13.4369 5.44206C11.182 5.44206 9.01957 6.42951 7.42516 8.18718C5.83076 9.94485 4.93504 12.3288 4.93504 14.8145ZM13.4369 29.629C10.5596 29.6286 7.75849 28.6102 5.44552 26.7237C3.13255 24.8371 1.4299 22.182 0.588069 19.149C-0.25376 16.1159 -0.190318 12.8651 0.769062 9.87475C1.72844 6.88441 3.5331 4.31248 5.91753 2.53734C8.30196 0.762198 11.1403 -0.122418 14.0148 0.0136417C16.8894 0.149701 19.6485 1.29925 21.8861 3.29316C24.1237 5.28708 25.7218 8.02007 26.4451 11.09C27.1685 14.16 26.9789 17.4049 25.9044 20.3472L31.192 24.2413C31.1532 24.3777 31.1166 24.5147 31.0823 24.6525L30.2376 27.9782L28.3014 29.4052L22.8492 25.3902C20.4248 28.0084 17.1009 29.629 13.4369 29.629ZM4.93504 51.1855C4.93504 48.6998 5.83076 46.3159 7.42516 44.5582C9.01957 42.8005 11.182 41.8131 13.4369 41.8131C15.6917 41.8131 17.8542 42.8005 19.4486 44.5582C21.043 46.3159 21.9387 48.6998 21.9387 51.1855C21.9387 53.6712 21.043 56.0552 19.4486 57.8128C17.8542 59.5705 15.6917 60.5579 13.4369 60.5579C11.182 60.5579 9.01957 59.5705 7.42516 57.8128C5.83076 56.0552 4.93504 53.6712 4.93504 51.1855ZM13.4369 36.3711C10.5622 36.3714 7.76333 37.388 5.45145 39.2715C3.13958 41.155 1.43651 43.8061 0.592396 46.8355C-0.251716 49.8648 -0.19238 53.1128 0.761689 56.1022C1.71576 59.0917 3.51427 61.6651 5.89307 63.4444C8.27186 65.2238 11.1056 66.1153 13.9779 65.9881C16.8503 65.8608 19.61 64.7215 21.8516 62.7375C24.0932 60.7535 25.6986 58.0293 26.432 54.9651C27.1655 51.9009 26.9882 48.6582 25.9263 45.7132L82 4.36574L76.7837 4.97041C69.4277 5.82372 62.3043 8.30834 55.8418 12.2749L38.9753 22.6148C38.3419 23.0048 37.785 23.5295 37.3368 24.1585C36.8886 24.7875 36.5581 25.5083 36.3644 26.2791L34.9767 31.7574L22.8931 40.6642C20.3801 37.9108 16.9799 36.367 13.4369 36.3711ZM38.9094 43.4155L38.9753 43.4578L55.8418 53.7977C62.3043 57.7642 69.4277 60.2488 76.7837 61.1022L82 61.7068L48.0475 36.6734L38.9094 43.4155Z" fill="#111111"/>
</svg>
